# xmcd
#
# Track frame offsets:
#	150
#	15882
#	32180
#	41198
#	52719
#	66154
#	78461
#	93903
#	105499
#	120132
#	138384
#	154181
#
# Disc length: 2198 seconds
#
# Revision: 0
# Processed by: cddbd v1.5.2PL0 Copyright (c) Steve Scherf et al.
# Submitted via: audiograbber 1.83.01
#
DISCID=8808940c
DTITLE=Da Zillertaler und die Geigerin - I bin koa Popstar und koa Millionär
DYEAR=2013
DGENRE=volkstümlich
TTITLE0=Mit Ziacha, Harfn und Geign
TTITLE1=Die Stern' am Tiroler Himmel
TTITLE2=1,2,3 Treschtrer
TTITLE3=650 Jahre Tirol bei Österreich
TTITLE4=Auf schneeweißen Wolken
TTITLE5=I bin koa Popstar
TTITLE6=Ich liebe Tirol
TTITLE7=Boarisch g'spielt 
TTITLE8=A Land wie im Märchen
TTITLE9=Ein Hoch auf Österreich
TTITLE10=Carina, Carina
TTITLE11=Polka auf russisch
EXTD=
EXTT0=
EXTT1=
EXTT2=
EXTT3=
EXTT4=
EXTT5=
EXTT6=
EXTT7=
EXTT8=
EXTT9=
EXTT10=
EXTT11=
PLAYORDER=
